<svg width="48" height="48" viewBox="0 0 48 48" fill="none" xmlns="http://www.w3.org/2000/svg">
<path d="M39.06 11.41L30.75 9.06L30.5 8.99L28.77 8.49H28.75L27 8.99L26.75 9.06L21 10.69L19.39 11.14L19.25 11.18L19.11 11.14L8 8V36.32L8.94 36.59L17.25 38.94L17.5 39.01L19.23 39.51H19.25L21 39.01L21.25 38.94L27 37.31L28.61 36.86L28.75 36.82L28.89 36.86L40 40V11.68L39.06 11.41ZM17.25 34.78L17 34.71L12 33.3V13.29L17 14.7L17.24 14.77V30.35H17.25V34.78ZM26.76 33.23L26.67 33.25L26.5 33.3L21.5 34.71L21.25 34.78V17.65H21.24V14.77L21.33 14.75L21.5 14.7L26.5 13.29L26.75 13.22V30.35H26.76V33.23ZM36 34.71L31 33.3L30.76 33.23V17.65H30.75V13.22L31 13.29L36 14.7V34.71ZM21.01 30.48V30.35V30.48Z" fill="#BFB2B7"/>
</svg>
