<svg width="48" height="48" viewBox="0 0 48 48" fill="none" xmlns="http://www.w3.org/2000/svg">
<path d="M17.06 18C14.3 18 12.06 15.76 12.06 13C12.06 10.24 14.3 8 17.06 8C19.82 8 22.06 10.24 22.06 13C22.06 15.76 19.82 18 17.06 18ZM17.06 12C16.51 12 16.06 12.45 16.06 13C16.06 13.55 16.51 14 17.06 14C17.61 14 18.06 13.55 18.06 13C18.06 12.45 17.61 12 17.06 12ZM11.99 39.99H12L13.13 35.99L15.23 28.5L11.99 39.99ZM25.87 40H25.88L26 39.57L25.87 40ZM30.94 18C28.18 18 25.94 15.76 25.94 13C25.94 10.24 28.18 8 30.94 8C33.7 8 35.94 10.24 35.94 13C35.94 15.76 33.7 18 30.94 18ZM30.94 12C30.39 12 29.94 12.45 29.94 13C29.94 13.55 30.39 14 30.94 14C31.49 14 31.94 13.55 31.94 13C31.94 12.45 31.49 12 30.94 12ZM25.87 40H25.88L26 39.57L25.87 40ZM8 40H11.99L15.23 28.5L17.06 22.01H13.06L8 40ZM24 32.46L21.06 22H17.06L20.99 35.99L22 39.57L22.12 39.99L25.87 40L26 39.57V39.54L27.01 36L30.94 22.01H26.94L24 32.46ZM38.87 35.99L34.94 22H30.94L34.87 35.99L36 39.99L40 40L38.87 35.99Z" fill="#ED8251"/>
</svg>
