<svg width="48" height="48" viewBox="0 0 48 48" fill="none" xmlns="http://www.w3.org/2000/svg">
<path d="M30 18C32.76 18 35 20.24 35 23C35 25.76 32.76 28 30 28C27.24 28 25 25.76 25 23C25 20.24 27.24 18 30 18ZM30 24C30.55 24 31 23.55 31 23C31 22.45 30.55 22 30 22C29.45 22 29 22.45 29 23C29 23.55 29.45 24 30 24ZM18 18C20.76 18 23 20.24 23 23C23 25.76 20.76 28 18 28C15.24 28 13 25.76 13 23C13 20.24 15.24 18 18 18ZM18 24C18.55 24 19 23.55 19 23C19 22.45 18.55 22 18 22C17.45 22 17 22.45 17 23C17 23.55 17.45 24 18 24ZM8 12V34H40V12H8ZM36 30H12V16H36V30Z" fill="#B3C5B4"/>
</svg>
