<svg width="48" height="48" viewBox="0 0 48 48" fill="none" xmlns="http://www.w3.org/2000/svg">
<path d="M40 23.6667L35.5 39.3333H31.5L31.67 38.7556L36 23.6667L31.67 8.5875L31.5 8H35.5L36.84 12.651L40 23.6667ZM13.34 12.651L12 8H8L8.17 8.57771L12.5 23.6667L8.17 38.7458L8 39.3333H12L16.5 23.6667L13.34 12.651ZM21.17 12.651L19.83 8H15.83L16 8.57771L20.33 23.6667L16 38.7458L15.83 39.3333H19.83L24.33 23.6667L21.17 12.651ZM29 12.651L27.66 8H23.66L23.83 8.57771L28.16 23.6667L23.83 38.7458L23.66 39.3333H27.66L32.16 23.6667L29 12.651Z" fill="#B3C5B4"/>
</svg>
