<svg width="48" height="48" viewBox="0 0 48 48" fill="none" xmlns="http://www.w3.org/2000/svg">
<path d="M40.1 21.07V40.08V21.07ZM25.99 36.01L8 30.94V34.94L18.89 38L26 40L33.11 38L40 36.06V32.06L26 36L25.99 36.01ZM25.99 28.51L8 23.45V27.45L18.89 30.51L26 32.51L33.11 30.51L40 28.57V24.57L26 28.51H25.99ZM26.09 21.01L8.1 15.95V19.95L19 23.01L26.1 25.01L33.21 23.01L40.1 21.07V17.07L26.1 21.01H26.09ZM29.2 10L22.1 8L15 10L8.1 11.94V15.94L22.1 12L40.1 17.06V13.06L29.21 10H29.2Z" fill="#BFB2B7"/>
</svg>
