<svg width="1774" height="248" viewBox="0 0 1774 248" fill="none" xmlns="http://www.w3.org/2000/svg">
<g clip-path="url(#clip0_224_19926)">
<path d="M644.478 111.881C637.915 110.893 632.38 110.893 625.834 110.893C603.588 110.893 588.846 119.03 588.846 151.929V243.744H543.68V68.5859H588.207V99.1734C598.337 77.358 614.054 68.9036 634.686 68.9036C637.613 68.9036 641.569 69.2213 644.496 69.5743V111.881H644.478Z" fill="#1C1C1C"/>
<path d="M824.523 128.477H781.326C777.725 111.568 762.007 99.4953 744.693 99.4953C721.117 99.4953 702.454 119.387 702.454 155.834C702.454 192.281 720.123 213.161 745.012 213.161C760.712 213.161 776.749 205.025 782.958 184.18H826.173C815.706 232.029 779.357 248.002 742.706 248.002C690.019 248.002 656.312 209.561 656.312 156.505C656.312 103.449 691.97 64.6719 744.675 64.6719C781.628 64.6719 818.296 85.1988 824.505 128.494L824.523 128.477Z" fill="#1C1C1C"/>
<path d="M898.268 91.7093C908.415 73.7945 927.397 64.6695 949.323 64.6695C991.527 64.6695 1010.19 90.0678 1010.19 133.381V243.746H965.041V143.141C965.041 120.691 960.109 100.834 934.581 100.834C904.814 100.834 898.268 124.909 898.268 152.584V243.764H853.102V7.69531H898.268V91.7093Z" fill="#1C1C1C"/>
<path d="M1093.42 26.8981C1093.42 39.3061 1083.31 49.3666 1070.84 49.3666C1058.37 49.3666 1048.26 39.3061 1048.26 26.8981C1048.26 14.4902 1058.37 4.42969 1070.84 4.42969C1083.31 4.42969 1093.42 14.4902 1093.42 26.8981ZM1093.42 68.5874V243.746H1048.26V68.5874H1093.42Z" fill="#1C1C1C"/>
<path d="M1426.36 220.625C1416.22 238.522 1396.9 247.982 1374.95 247.982C1332.75 247.982 1315.72 222.231 1315.72 179.271V68.588H1360.88V169.511C1360.88 192.95 1364.49 211.818 1389.69 211.818C1419.8 211.818 1426.36 187.408 1426.36 159.715V68.5703H1471.51V243.729H1426.36V220.607V220.625Z" fill="#1C1C1C"/>
<path d="M1728.85 141.838C1728.85 122.617 1727.2 100.819 1700.68 100.819C1670.59 100.819 1665.66 125.864 1665.66 152.569V243.749H1620.51V141.838C1620.51 122.617 1618.86 100.819 1592.34 100.819C1562.24 100.819 1557.32 125.864 1557.32 152.569V243.749H1512.16V68.5902H1557.32V91.7117C1567.47 74.45 1585.14 64.6719 1606.41 64.6719C1636.19 64.6719 1649.62 80.6275 1656.47 93.3355C1670.57 73.7969 1687.89 64.6719 1714.41 64.6719C1758.58 64.6719 1773.96 92.0294 1773.96 133.383V243.749H1728.81V141.838H1728.85Z" fill="#1C1C1C"/>
<path d="M523.417 243.535H472.646L409.172 7.78414V7.55469H456.13L523.417 243.535Z" fill="#1C1C1C"/>
<path d="M409.05 7.55469L409.174 7.78414L345.559 243.535H294.805L362.093 7.55469H409.05Z" fill="#1C1C1C"/>
<path d="M409.171 7.55469V7.78414L409.047 7.55469H409.171Z" fill="#1C1C1C"/>
<path d="M1298.42 68.5703L1253.37 243.746H1158.86L1113.8 68.5703H1161.24L1206.05 243.04L1250.88 68.5703H1298.42Z" fill="#1C1C1C"/>
<path d="M0 57.7331V0H11.052V20.3857C13.376 16.3262 18.0238 13.9435 23.4523 13.9435C33.8657 13.9435 42.1857 22.8567 42.1857 36.3237C42.1857 49.7906 33.706 58.7745 23.4523 58.7745C18.9641 58.7745 13.8372 57.0977 11.052 52.3322V57.7508H0V57.7331ZM30.5838 36.3943C30.5838 28.0282 26.5036 22.3802 20.7381 22.3802C14.6532 22.3802 10.6617 27.7105 10.6617 36.3237C10.6617 44.9369 14.671 50.3378 20.7381 50.3378C26.5036 50.3378 30.5838 44.7604 30.5838 36.4119V36.3943Z" fill="#1C1C1C"/>
<path d="M60.3333 57.7331H49.2812V0H60.3333V57.7331Z" fill="#1C1C1C"/>
<path d="M81.302 0V10.2017H70.25V0H81.302ZM81.302 14.8966V57.7508H70.25V14.8966H81.302Z" fill="#1C1C1C"/>
<path d="M102.273 20.5464C104.756 16.1692 109.404 13.9453 114.762 13.9453C125.087 13.9453 129.646 20.1581 129.646 30.7481V57.7526H118.594V33.1485C118.594 27.6594 117.387 22.788 111.143 22.788C103.852 22.788 102.255 28.6831 102.255 35.443V57.7349H91.2031V14.8984H102.255V20.5464H102.273Z" fill="#1C1C1C"/>
<path d="M149.974 0V32.0877L165.656 14.8789H178.056L162.605 31.2934L178.943 57.7331H166.543L155.26 39.183L149.974 44.831V57.7331H138.922V0H149.974Z" fill="#1C1C1C"/>
<path d="M190.703 39.3437C191.342 46.6684 196.309 50.2513 201.596 50.2513C205.037 50.2513 208.39 49.0511 210.643 45.3093H222.014C219.691 51.681 213.446 58.7763 201.684 58.7763C187.83 58.7763 179.758 48.504 179.758 36.1667C179.758 23.8293 188.646 13.9453 201.365 13.9453C214.085 13.9453 222.901 24.2176 222.493 39.3437H190.721H190.703ZM190.863 31.7718H211.282C211.033 24.5353 205.924 21.9761 201.276 21.9761C197.108 21.9761 191.75 24.5353 190.863 31.7718Z" fill="#1C1C1C"/>
<path d="M240.64 20.5464C243.124 16.1692 247.772 13.9453 253.129 13.9453C263.454 13.9453 268.013 20.1581 268.013 30.7481V57.7526H256.961V33.1485C256.961 27.6594 255.755 22.788 249.51 22.788C242.219 22.788 240.622 28.6831 240.622 35.443V57.7349H229.57V14.8984H240.622V20.5464H240.64Z" fill="#1C1C1C"/>
<path d="M137.57 105.404C137.57 90.3485 148.303 82.9531 159.178 82.9531C170.052 82.9531 180.785 90.3661 180.785 105.404C180.785 120.442 170.052 127.784 159.178 127.784C148.303 127.784 137.57 120.371 137.57 105.404ZM148.782 105.404C148.782 114.405 153.111 119.171 159.195 119.171C165.28 119.171 169.609 114.388 169.609 105.404C169.609 96.4201 165.28 91.5487 159.195 91.5487C153.111 91.5487 148.782 96.4024 148.782 105.404Z" fill="#1C1C1C"/>
<path d="M212.397 96.7953C211.51 93.2124 208.317 90.6708 203.19 90.6708C199.11 90.6708 196.218 92.1887 196.218 94.8185C196.218 97.1307 197.904 98.878 201.984 99.7605L207.749 101.031C216.318 102.938 223.591 105.091 223.591 113.933C223.591 122.776 214.703 127.789 204.946 127.789C194.391 127.789 186.373 122.37 185.344 112.574H195.988C196.626 116.705 199.518 119.811 205.266 119.811C210.073 119.811 213.036 118.064 213.036 114.957C213.036 111.851 209.754 110.58 205.993 109.697L199.589 108.338C191.5 106.662 186.142 103.326 186.142 95.5245C186.142 87.7232 194.462 82.7812 203.758 82.7812C213.054 82.7812 221.214 86.9113 222.722 96.7953H212.397Z" fill="#1C1C1C"/>
<path d="M244.241 127.785C235.992 127.785 228.719 123.002 228.719 115.2C228.719 105.087 240.09 102.051 257.05 100.145V99.4388C257.05 92.82 253.448 90.5255 248.96 90.5255C244.72 90.5255 241.19 92.6788 240.959 97.462H230.635C231.522 89.0253 238.405 82.8125 249.528 82.8125C259.693 82.8125 268.102 87.278 268.102 101.68C268.102 102.951 267.942 108.776 267.942 112.588C267.942 119.348 268.35 123.178 269.219 126.761H259.054C258.735 125.402 258.575 123.584 258.327 121.431C255.205 125.896 250.716 127.802 244.241 127.802V127.785ZM257.369 107.152C244.969 108.423 240.072 109.852 240.072 114.635C240.072 117.742 242.467 120.301 247.523 120.301C254.495 120.301 257.369 116.63 257.369 110.346V107.169V107.152Z" fill="#1C1C1C"/>
</g>
<defs>
<clipPath id="clip0_224_19926">
<rect width="1774" height="248" fill="white"/>
</clipPath>
</defs>
</svg>
