<svg width="837" height="410" viewBox="0 0 837 410" fill="none" xmlns="http://www.w3.org/2000/svg">
<path d="M837 410H751.673L645 13.386V13H723.917L837 410Z" fill="#1C1C1C"/>
<path d="M644.792 13L645 13.386L538.204 410H453L565.96 13H644.792Z" fill="#1C1C1C"/>
<path d="M0 97.2459V0H18.6009V34.3378C22.5122 27.5 30.3347 23.4865 39.471 23.4865C56.9971 23.4865 71 38.5 71 61.1838C71 83.8676 56.7283 99 39.471 99C31.9172 99 23.2885 96.1757 18.6009 88.1487V97.2757H0V97.2459ZM51.4735 61.3027C51.4735 47.2108 44.6064 37.6973 34.9029 37.6973C24.6619 37.6973 17.9441 46.6757 17.9441 61.1838C17.9441 75.6919 24.6918 84.7892 34.9029 84.7892C44.6064 84.7892 51.4735 75.3946 51.4735 61.3324V61.3027Z" fill="#1C1C1C"/>
<path d="M102 97H83V0H102V97Z" fill="#1C1C1C"/>
<path d="M137 0V17.1351H118V0H137ZM137 25.0208V97H118V25.0208H137Z" fill="#1C1C1C"/>
<path d="M172.429 34.1507C176.564 26.7566 184.302 23 193.221 23C210.41 23 218 33.4948 218 51.3836V97H199.6V55.4384C199.6 46.166 197.592 37.9371 187.196 37.9371C175.058 37.9371 172.4 47.8952 172.4 59.3143V96.9702H154V24.61H172.4V34.1507H172.429Z" fill="#1C1C1C"/>
<path d="M252.502 0V53.912L278.756 24.9988H299.515L273.648 52.5775L301 97H280.241L261.352 65.8331L252.502 75.3225V97H234V0H252.502Z" fill="#1C1C1C"/>
<path d="M321.179 66.0567C322.24 78.474 330.489 84.548 339.269 84.548C344.985 84.548 350.554 82.5134 354.296 76.1701H373.182C369.322 86.9717 358.951 99 339.417 99C316.406 99 303 81.5858 303 60.6709C303 39.7559 317.761 23 338.886 23C360.012 23 374.655 40.4142 373.977 66.0567H321.208H321.179ZM321.444 53.2205H355.357C354.944 40.9528 346.459 36.6142 338.739 36.6142C331.815 36.6142 322.917 40.9528 321.444 53.2205Z" fill="#1C1C1C"/>
<path d="M404.717 34.1507C408.916 26.7566 416.775 23 425.834 23C443.291 23 451 33.4948 451 51.3836V97H432.313V55.4384C432.313 46.166 430.273 37.9371 419.715 37.9371C407.387 37.9371 404.687 47.8952 404.687 59.3143V96.9702H386V24.61H404.687V34.1507H404.717Z" fill="#1C1C1C"/>
<path d="M232 177.06C232 151.537 249.882 139 268 139C286.118 139 304 151.567 304 177.06C304 202.553 286.118 215 268 215C249.882 215 232 202.433 232 177.06ZM250.68 177.06C250.68 192.32 257.892 200.398 268.03 200.398C278.167 200.398 285.379 192.29 285.379 177.06C285.379 161.83 278.167 153.572 268.03 153.572C257.892 153.572 250.68 161.8 250.68 177.06Z" fill="#1C1C1C"/>
<path d="M357.269 162.664C355.785 156.614 350.442 152.322 341.863 152.322C335.035 152.322 330.197 154.885 330.197 159.326C330.197 163.231 333.017 166.181 339.844 167.671L349.492 169.817C363.829 173.036 376 176.672 376 191.604C376 206.536 361.128 215 344.801 215C327.139 215 313.722 205.85 312 189.309H329.811C330.879 196.283 335.718 201.529 345.336 201.529C353.38 201.529 358.338 198.578 358.338 193.333C358.338 188.087 352.846 185.941 346.553 184.451L335.837 182.156C322.301 179.325 313.336 173.692 313.336 160.518C313.336 147.345 327.258 139 342.813 139C358.367 139 372.022 145.974 374.545 162.664H357.269Z" fill="#1C1C1C"/>
<path d="M411.062 214.97C397.212 214.97 385 206.89 385 193.712C385 176.627 404.092 171.499 432.567 168.279V167.086C432.567 155.905 426.521 152.029 418.985 152.029C411.866 152.029 405.939 155.667 405.552 163.747H388.217C389.706 149.495 401.263 139 419.938 139C437.005 139 451.124 146.543 451.124 170.873C451.124 173.02 450.855 182.859 450.855 189.299C450.855 200.718 451.541 207.188 453 213.241H435.933C435.397 210.945 435.129 207.874 434.712 204.237C429.47 211.78 421.934 215 411.062 215V214.97ZM433.103 180.116C412.283 182.262 404.063 184.678 404.063 192.758C404.063 198.005 408.084 202.328 416.573 202.328C428.278 202.328 433.103 196.127 433.103 185.512V180.146V180.116Z" fill="#1C1C1C"/>
</svg>
