<svg width="361" height="47" viewBox="0 0 361 47" fill="none" xmlns="http://www.w3.org/2000/svg">
<path d="M66.0098 20.5277C64.7738 20.3415 63.7241 20.3415 62.4882 20.3415C58.2893 20.3415 55.5042 21.8864 55.5042 28.1297V45.5473H46.9795V12.312H55.3857V18.1151C57.2989 13.9755 60.266 12.3713 64.1601 12.3713C64.7146 12.3713 65.4595 12.4305 66.0098 12.4983V20.5277Z" fill="#1C1C1C"/>
<path d="M99.9982 23.6772H91.8459C91.1687 20.4688 88.1973 18.1789 84.9297 18.1789C80.4769 18.1789 76.9552 21.9502 76.9552 28.8665C76.9552 35.7828 80.2906 39.7404 84.9889 39.7404C87.9518 39.7404 90.9782 38.1954 92.1507 34.2421H100.311C98.3347 43.3212 91.4735 46.3519 84.5572 46.3519C74.6103 46.3519 68.2485 39.0589 68.2485 28.9935C68.2485 18.9281 74.9786 11.5674 84.9297 11.5674C91.9052 11.5674 98.8299 15.4615 100.002 23.6772H99.9982Z" fill="#1C1C1C"/>
<path d="M113.915 16.6973C115.833 13.2984 119.414 11.5672 123.553 11.5672C131.519 11.5672 135.041 16.3883 135.041 24.604V45.5432H126.52V26.4537C126.52 22.1913 125.589 18.4242 120.772 18.4242C115.155 18.4242 113.915 22.9913 113.915 28.2441V45.5432H105.391V0.756836H113.915V16.6973Z" fill="#1C1C1C"/>
<path d="M150.757 4.40126C150.757 6.75466 148.848 8.66361 146.494 8.66361C144.141 8.66361 142.232 6.75466 142.232 4.40126C142.232 2.04787 144.141 0.138916 146.494 0.138916C148.848 0.138916 150.757 2.04787 150.757 4.40126ZM150.757 12.3122V45.5475H142.232V12.3122H150.757Z" fill="#1C1C1C"/>
<path d="M213.608 41.1622C211.691 44.5569 208.047 46.3515 203.907 46.3515C195.941 46.3515 192.724 41.467 192.724 33.3148V12.312H201.249V31.4608C201.249 35.9094 201.926 39.4903 206.688 39.4903C212.372 39.4903 213.608 34.8555 213.608 29.6069V12.312H222.129V45.5473H213.608V41.1622Z" fill="#1C1C1C"/>
<path d="M270.712 26.2126C270.712 22.564 270.399 18.4329 265.396 18.4329C259.716 18.4329 258.784 23.1862 258.784 28.2528V45.5519H250.264V26.2168C250.264 22.5682 249.951 18.4371 244.948 18.4371C239.263 18.4371 238.336 23.1904 238.336 28.257V45.5561H229.812V12.3123H238.336V16.6974C240.254 13.4213 243.589 11.5674 247.602 11.5674C253.227 11.5674 255.762 14.5938 257.053 17.0064C259.716 13.2986 262.983 11.5674 267.991 11.5674C276.329 11.5674 279.233 16.7567 279.233 24.6042V45.5434H270.712V26.2084V26.2126Z" fill="#1C1C1C"/>
<path d="M43.1565 45.5054H33.5736L21.5908 0.778249V0.731689H30.4541L43.1565 45.5054Z" fill="#1C1C1C"/>
<path d="M21.5657 0.731689L21.5911 0.778249L9.58287 45.5054H0L12.7024 0.731689H21.5657Z" fill="#1C1C1C"/>
<path d="M21.5913 0.731689V0.778249L21.5659 0.731689H21.5913Z" fill="#1C1C1C"/>
<path d="M189.456 12.3079L180.953 45.5474H163.112L154.604 12.3079H163.56L172.022 45.412L180.479 12.3079H189.456Z" fill="#1C1C1C"/>
<path d="M290.128 27.5331V12.1853H293.049V17.6032C293.662 16.5238 294.89 15.8889 296.329 15.8889C299.08 15.8889 301.281 18.2593 301.281 21.8359C301.281 25.4125 299.038 27.804 296.329 27.804C295.144 27.804 293.789 27.3596 293.049 26.0898V27.5289H290.128V27.5331ZM298.212 21.8613C298.212 19.6391 297.133 18.1365 295.609 18.1365C294.001 18.1365 292.943 19.5545 292.943 21.8401C292.943 24.1258 294.001 25.5649 295.609 25.5649C297.133 25.5649 298.212 24.0835 298.212 21.8613Z" fill="#1C1C1C"/>
<path d="M306.081 27.5331H303.16V12.1853H306.081V27.5289V27.5331Z" fill="#1C1C1C"/>
<path d="M311.626 12.1853V14.8942H308.705V12.1853H311.626ZM311.626 16.1429V27.5289H308.705V16.1429H311.626Z" fill="#1C1C1C"/>
<path d="M317.17 17.6494C317.826 16.4854 319.054 15.8928 320.472 15.8928C323.202 15.8928 324.408 17.5436 324.408 20.3583V27.5328H321.487V20.9932C321.487 19.533 321.17 18.242 319.519 18.242C317.593 18.242 317.17 19.8081 317.17 21.607V27.5328H314.25V16.1468H317.17V17.6494Z" fill="#1C1C1C"/>
<path d="M329.784 12.1853V20.7142L333.932 16.1429H337.212L333.128 20.5026L337.445 27.5289H334.165L331.181 22.5978L329.784 24.1004V27.5289H326.863V12.1853H329.784Z" fill="#1C1C1C"/>
<path d="M340.556 22.644C340.725 24.5911 342.038 25.5434 343.434 25.5434C344.344 25.5434 345.233 25.226 345.826 24.2313H348.831C348.217 25.9244 346.567 27.8079 343.456 27.8079C339.794 27.8079 337.657 25.0778 337.657 21.7975C337.657 18.5171 340.006 15.8928 343.371 15.8928C346.736 15.8928 349.064 18.6229 348.958 22.644H340.556ZM340.598 20.6335H345.995C345.932 18.7076 344.577 18.0303 343.35 18.0303C342.249 18.0303 340.831 18.7076 340.598 20.6335Z" fill="#1C1C1C"/>
<path d="M353.762 17.6494C354.418 16.4854 355.646 15.8928 357.064 15.8928C359.794 15.8928 361 17.5436 361 20.3583V27.5328H358.08V20.9932C358.08 19.533 357.762 18.242 356.112 18.242C354.186 18.242 353.762 19.8081 353.762 21.607V27.5328H350.842V16.1468H353.762V17.6494Z" fill="#1C1C1C"/>
<path d="M289.361 39.6385C289.361 35.6386 292.197 33.6704 295.075 33.6704C297.954 33.6704 300.79 35.6386 300.79 39.6385C300.79 43.6385 297.954 45.5855 295.075 45.5855C292.197 45.5855 289.361 43.6173 289.361 39.6385ZM292.324 39.6385C292.324 42.03 293.467 43.2998 295.075 43.2998C296.684 43.2998 297.827 42.03 297.827 39.6385C297.827 37.2471 296.684 35.9561 295.075 35.9561C293.467 35.9561 292.324 37.2471 292.324 39.6385Z" fill="#1C1C1C"/>
<path d="M309.149 37.353C308.917 36.4006 308.07 35.7234 306.716 35.7234C305.636 35.7234 304.874 36.1255 304.874 36.8239C304.874 37.4376 305.319 37.9032 306.398 38.136L307.922 38.4746C310.186 38.9826 312.112 39.554 312.112 41.9031C312.112 44.2523 309.763 45.5856 307.181 45.5856C304.388 45.5856 302.271 44.1465 301.996 41.5434H304.811C304.98 42.6439 305.742 43.4692 307.266 43.4692C308.536 43.4692 309.319 43.0036 309.319 42.1783C309.319 41.3529 308.451 41.0143 307.456 40.7815L305.763 40.4217C303.626 39.9772 302.208 39.0884 302.208 37.0143C302.208 34.9403 304.409 33.6282 306.864 33.6282C309.319 33.6282 311.477 34.7287 311.88 37.353H309.149Z" fill="#1C1C1C"/>
<path d="M317.576 45.5856C315.397 45.5856 313.471 44.3158 313.471 42.2418C313.471 39.554 316.476 38.7498 320.963 38.2418V38.0514C320.963 36.2948 320.01 35.681 318.825 35.681C317.703 35.681 316.772 36.2525 316.709 37.5223H313.979C314.211 35.2789 316.031 33.6282 318.973 33.6282C321.661 33.6282 323.883 34.8133 323.883 38.6439C323.883 38.9826 323.841 40.5275 323.841 41.5434C323.841 43.3423 323.947 44.3581 324.179 45.3105H321.492C321.407 44.9507 321.365 44.4639 321.301 43.8925C320.476 45.0777 319.291 45.5856 317.576 45.5856ZM321.047 40.1042C317.767 40.4428 316.476 40.8238 316.476 42.0936C316.476 42.919 317.111 43.5962 318.444 43.5962C320.285 43.5962 321.047 42.6227 321.047 40.9508V40.1042Z" fill="#1C1C1C"/>
</svg>
