<svg width="18" height="16" viewBox="0 0 18 16" fill="none" xmlns="http://www.w3.org/2000/svg">
<g clip-path="url(#clip0_461_5213)">
<path d="M8.72727 1.44062C11.0591 1.44062 11.3352 1.45 12.2523 1.4875C13.1045 1.52187 13.5648 1.65313 13.8716 1.7625C14.2773 1.90625 14.5705 2.08125 14.8739 2.35938C15.1807 2.64063 15.3682 2.90625 15.525 3.27813C15.6443 3.55938 15.7875 3.98437 15.825 4.7625C15.8659 5.60625 15.8761 5.85938 15.8761 7.99375C15.8761 10.1313 15.8659 10.3844 15.825 11.225C15.7875 12.0063 15.6443 12.4281 15.525 12.7094C15.3682 13.0813 15.1773 13.35 14.8739 13.6281C14.567 13.9094 14.2773 14.0813 13.8716 14.225C13.5648 14.3344 13.1011 14.4656 12.2523 14.5C11.3318 14.5375 11.0557 14.5469 8.72727 14.5469C6.39546 14.5469 6.11932 14.5375 5.20227 14.5C4.35 14.4656 3.88977 14.3344 3.58296 14.225C3.17727 14.0813 2.88409 13.9063 2.58068 13.6281C2.27386 13.3469 2.08636 13.0813 1.92955 12.7094C1.81023 12.4281 1.66705 12.0031 1.62955 11.225C1.58864 10.3813 1.57841 10.1281 1.57841 7.99375C1.57841 5.85625 1.58864 5.60312 1.62955 4.7625C1.66705 3.98125 1.81023 3.55938 1.92955 3.27813C2.08636 2.90625 2.27727 2.6375 2.58068 2.35938C2.8875 2.07813 3.17727 1.90625 3.58296 1.7625C3.88977 1.65313 4.35341 1.52187 5.20227 1.4875C6.11932 1.45 6.39546 1.44062 8.72727 1.44062ZM8.72727 0C6.35796 0 6.06136 0.009375 5.13068 0.046875C4.20341 0.084375 3.56591 0.221875 3.01364 0.41875C2.4375 0.625 1.95 0.896875 1.46591 1.34375C0.978409 1.7875 0.681818 2.23438 0.456818 2.75938C0.242045 3.26875 0.0920455 3.85 0.0511364 4.7C0.0102273 5.55625 0 5.82813 0 8C0 10.1719 0.0102273 10.4438 0.0511364 11.2969C0.0920455 12.1469 0.242045 12.7313 0.456818 13.2375C0.681818 13.7656 0.978409 14.2125 1.46591 14.6563C1.95 15.1 2.4375 15.375 3.01023 15.5781C3.56591 15.775 4.2 15.9125 5.12727 15.95C6.05796 15.9875 6.35455 15.9969 8.72386 15.9969C11.0932 15.9969 11.3898 15.9875 12.3205 15.95C13.2477 15.9125 13.8852 15.775 14.4375 15.5781C15.0102 15.375 15.4977 15.1 15.9818 14.6563C16.4659 14.2125 16.7659 13.7656 16.9875 13.2406C17.2023 12.7313 17.3523 12.15 17.3932 11.3C17.4341 10.4469 17.4443 10.175 17.4443 8.00313C17.4443 5.83125 17.4341 5.55938 17.3932 4.70625C17.3523 3.85625 17.2023 3.27188 16.9875 2.76563C16.7727 2.23438 16.4761 1.7875 15.9886 1.34375C15.5045 0.9 15.017 0.625 14.4443 0.421875C13.8886 0.225 13.2545 0.0875 12.3273 0.05C11.3932 0.009375 11.0966 0 8.72727 0Z" fill="white"/>
<path d="M8.7271 3.89062C6.2521 3.89062 4.24414 5.73125 4.24414 8C4.24414 10.2688 6.2521 12.1094 8.7271 12.1094C11.2021 12.1094 13.2101 10.2688 13.2101 8C13.2101 5.73125 11.2021 3.89062 8.7271 3.89062ZM8.7271 10.6656C7.12141 10.6656 5.81914 9.47188 5.81914 8C5.81914 6.52813 7.12141 5.33437 8.7271 5.33437C10.3328 5.33437 11.6351 6.52813 11.6351 8C11.6351 9.47188 10.3328 10.6656 8.7271 10.6656Z" fill="white"/>
<path d="M14.434 3.72818C14.434 4.25943 13.9635 4.68755 13.3874 4.68755C12.8079 4.68755 12.3408 4.2563 12.3408 3.72818C12.3408 3.19692 12.8113 2.7688 13.3874 2.7688C13.9635 2.7688 14.434 3.20005 14.434 3.72818Z" fill="white"/>
</g>
<defs>
<clipPath id="clip0_461_5213">
<rect width="17.4545" height="16" fill="white"/>
</clipPath>
</defs>
</svg>
