<svg width="17" height="16" viewBox="0 0 17 16" fill="none" xmlns="http://www.w3.org/2000/svg">
<g clip-path="url(#clip0_461_5212)">
<path d="M16.2952 4.79995C16.2952 4.79995 16.139 3.69683 15.6577 3.21245C15.0483 2.57495 14.3671 2.57183 14.0546 2.53433C11.8171 2.37183 8.45772 2.37183 8.45772 2.37183H8.45146C8.45146 2.37183 5.09209 2.37183 2.85459 2.53433C2.54209 2.57183 1.86084 2.57495 1.25146 3.21245C0.770215 3.69683 0.61709 4.79995 0.61709 4.79995C0.61709 4.79995 0.45459 6.09683 0.45459 7.39058V8.60308C0.45459 9.89683 0.613965 11.1937 0.613965 11.1937C0.613965 11.1937 0.770215 12.2968 1.24834 12.7812C1.85771 13.4187 2.65772 13.3968 3.01397 13.4656C4.29522 13.5875 8.45459 13.625 8.45459 13.625C8.45459 13.625 11.8171 13.6187 14.0546 13.4593C14.3671 13.4218 15.0483 13.4187 15.6577 12.7812C16.139 12.2968 16.2952 11.1937 16.2952 11.1937C16.2952 11.1937 16.4546 9.89995 16.4546 8.60308V7.39058C16.4546 6.09683 16.2952 4.79995 16.2952 4.79995ZM6.80147 10.075V5.57808L11.1233 7.83433L6.80147 10.075Z" fill="white"/>
</g>
<defs>
<clipPath id="clip0_461_5212">
<rect width="16" height="16" fill="white" transform="translate(0.45459)"/>
</clipPath>
</defs>
</svg>
