<svg width="360" height="62" viewBox="0 0 360 62" fill="none" xmlns="http://www.w3.org/2000/svg">
<path d="M150.051 17.36C149.505 24.9078 142.668 27.7113 136.267 27.7113H128.157C121.83 27.7113 114.338 24.3687 114.338 15.6707C114.338 6.97274 121.83 3.63013 128.157 3.63013H136.267C141.868 3.63013 147.832 6.21795 149.323 12.9751H142.886C141.904 10.0638 139.213 9.1652 135.904 9.1652H128.448C124.121 9.1652 120.739 10.9264 120.739 15.6348C120.739 20.3432 124.121 22.1043 128.448 22.1043H135.904C139.94 22.1043 143.104 21.0261 143.577 17.2881H150.051V17.36Z" fill="#1C1C1C"/>
<path d="M185.654 20.0198C184.49 25.5908 178.926 27.7114 173.726 27.7114H164.925C159.07 27.7114 152.814 24.5844 152.814 17.3601C152.814 10.0998 159.07 7.00879 164.925 7.00879H173.726C178.926 7.00879 185.145 9.81227 185.509 16.8928L185.618 19.0494H158.997C159.47 21.781 161.324 22.7155 165.216 22.7155H173.398C176.562 22.7155 178.49 21.9966 179.435 20.0557H185.654V20.0198ZM159.106 15.0239H179.363C178.526 12.8314 176.453 12.0047 173.362 12.0047H165.179C161.652 12.0047 159.797 12.7595 159.106 15.0239Z" fill="#1C1C1C"/>
<path d="M218.785 15.6709V27.7115H212.712V15.6709C212.712 13.1549 211.112 12.3283 209.075 12.3283H203.329C198.82 12.3283 195.292 13.73 195.292 17.3601V27.7115H189.219V6.9729H195.256V12.8674C196.638 8.80594 199.874 6.9729 202.966 6.9729H209.403C213.912 6.9729 218.785 9.30913 218.785 15.6709Z" fill="#1C1C1C"/>
<path d="M270.717 15.6709H264.971C264.971 13.0471 263.262 12.1845 260.971 12.1845H259.298C254.788 12.1845 251.261 13.6222 251.261 17.3242V27.7115H245.188V6.9729H251.261V12.8674C252.643 8.80594 255.879 6.9729 258.971 6.9729H261.335C265.844 6.9729 270.717 9.30913 270.717 15.6709Z" fill="#1C1C1C"/>
<path d="M315.704 27.7114H309.631V0.287598H315.704V27.7114Z" fill="#1C1C1C"/>
<path d="M325.995 0.287598V5.64296H319.922V0.287598H325.995ZM325.995 27.7114H319.922V6.97281H325.995V27.7114Z" fill="#1C1C1C"/>
<path d="M329.705 20.3429H335.451C335.451 22.14 337.015 22.751 339.051 22.751H351.889C353.089 22.751 353.926 22.3197 353.926 21.2415C353.926 20.1272 353.089 19.7319 351.889 19.6959L336.651 19.1928C332.36 19.049 329.705 17.1441 329.705 13.2623C329.705 9.09304 333.851 6.93652 337.742 6.93652H350.907C355.271 6.93652 359.963 8.91334 359.963 14.3046H354.217C354.217 12.5075 352.616 11.8965 350.58 11.8965H337.815C336.615 11.8965 335.778 12.3278 335.778 13.4061C335.778 14.4843 336.615 14.8797 337.815 14.9157L352.944 15.4188C357.817 15.5626 359.999 17.7551 359.999 21.2415C359.999 24.8357 356.944 27.711 351.962 27.711H338.797C334.324 27.711 329.705 25.7342 329.705 20.3429Z" fill="#1C1C1C"/>
<path d="M304.43 20.3433V15.6709C304.43 9.30913 299.557 6.9729 295.011 6.9729H282.646C278.464 6.9729 273.918 8.94971 273.918 14.341H279.664C279.664 12.7596 280.937 12.2564 282.646 12.2564H296.466C297.666 12.2564 298.357 12.6877 298.357 13.8019C298.357 14.9161 297.629 15.3474 296.466 15.3474H281.555H281.519C275.3 15.3474 273.954 18.5462 273.954 21.3138C273.954 24.4767 276.027 27.7474 281.555 27.7474H290.247C294.975 27.7474 297.339 25.1955 298.393 22.5358C298.648 25.7346 300.466 27.7474 304.467 27.7474H306.503V22.3561C305.23 22.3561 304.43 21.817 304.43 20.3433ZM293.665 22.428H280.937C280.246 22.428 279.664 21.8888 279.664 21.0981C279.664 20.3074 280.282 19.7683 280.937 19.7683C281.119 19.7683 281.301 19.7683 281.482 19.7683H298.248C297.884 21.5654 296.029 22.428 293.665 22.428Z" fill="#1C1C1C"/>
<path d="M240.97 12.3282V6.97279H232.278V1.61743H228.568H226.204V6.97279H221.768V12.3282H226.204V21.0261C226.204 25.5548 228.568 27.7113 232.641 27.7113H240.679V22.356H234.678C233.151 22.356 232.314 21.8169 232.314 20.0198V12.3282H240.97Z" fill="#1C1C1C"/>
<path d="M195.437 61.0654H189.363V33.6416H195.437V61.0654Z" fill="#1C1C1C"/>
<path d="M231.84 53.3741C230.677 58.9451 225.112 61.0656 219.948 61.0656H211.147C205.292 61.0656 199.037 57.9387 199.037 50.7143C199.037 43.4541 205.292 40.363 211.147 40.363H219.948C225.149 40.363 231.368 43.1665 231.731 50.2471L231.84 52.4036H205.22C205.692 55.1352 207.547 56.0697 211.438 56.0697H219.621C222.785 56.0697 224.712 55.3509 225.658 53.41H231.84V53.3741ZM205.292 48.3422H225.549C224.712 46.1497 222.639 45.323 219.548 45.323H211.366C207.838 45.359 205.983 46.1138 205.292 48.3422Z" fill="#1C1C1C"/>
<path d="M260.899 49.0249H255.153C255.153 46.4012 253.444 45.5386 251.153 45.5386H249.48C244.97 45.5386 241.442 46.9762 241.442 50.6783V61.0296H235.369V40.291H241.442V46.1855C242.824 42.1241 246.061 40.291 249.152 40.291H251.516C256.026 40.327 260.899 42.6632 260.899 49.0249Z" fill="#1C1C1C"/>
<path d="M269.626 33.6416V38.997H263.553V33.6416H269.626ZM269.626 61.0654H263.553V40.3268H269.626V61.0654Z" fill="#1C1C1C"/>
<path d="M184.127 53.6973V49.0249C184.127 42.6631 179.254 40.3269 174.708 40.3269H162.343C158.161 40.3269 153.615 42.3037 153.615 47.695H159.361C159.361 46.1136 160.634 45.6104 162.343 45.6104H176.163C177.363 45.6104 178.054 46.0417 178.054 47.1559C178.054 48.2701 177.327 48.7014 176.163 48.7014H161.252H161.216C154.997 48.7014 153.652 51.9002 153.652 54.6678C153.652 57.8307 155.725 61.1014 161.252 61.1014H169.944C174.672 61.1014 177.036 58.5495 178.09 55.8898C178.345 59.0886 180.163 61.1014 184.164 61.1014H186.2V55.746C184.927 55.7101 184.127 55.171 184.127 53.6973ZM173.363 55.782H160.634C159.943 55.782 159.361 55.2428 159.361 54.4521C159.361 53.6614 159.98 53.1223 160.634 53.1223C160.816 53.1223 160.998 53.1223 161.18 53.1223H177.945C177.581 54.9194 175.727 55.782 173.363 55.782Z" fill="#1C1C1C"/>
<path d="M303.993 53.6973V49.0249C303.993 42.6631 299.119 40.3269 294.574 40.3269H282.209C278.026 40.3269 273.48 42.3037 273.48 47.695H279.227C279.227 46.1136 280.499 45.6104 282.209 45.6104H296.028C297.228 45.6104 297.919 46.0417 297.919 47.1559C297.919 48.2701 297.192 48.7014 296.028 48.7014H281.118H281.081C274.862 48.7014 273.517 51.9002 273.517 54.6678C273.517 57.8307 275.59 61.1014 281.118 61.1014H289.809C294.537 61.1014 296.901 58.5495 297.956 55.8898C298.21 59.0886 300.029 61.1014 304.029 61.1014H306.066V55.746C304.793 55.7101 303.993 55.171 303.993 53.6973ZM293.228 55.782H280.499C279.808 55.782 279.227 55.2428 279.227 54.4521C279.227 53.6614 279.845 53.1223 280.499 53.1223C280.681 53.1223 280.863 53.1223 281.045 53.1223H297.81C297.447 54.9194 295.592 55.782 293.228 55.782Z" fill="#1C1C1C"/>
<path d="M149.396 48.0907H143.832H132.194V53.0866H143.468C142.123 55.0634 138.886 55.4947 135.213 55.4947H128.448C124.121 55.4947 120.739 53.7336 120.739 49.0251C120.739 44.3167 124.121 42.5556 128.448 42.5556H135.904C139.177 42.5556 141.904 43.4541 142.886 46.3654H149.323C147.832 39.5724 141.868 37.0205 136.267 37.0205H128.157C121.83 37.0205 114.338 40.3631 114.338 49.0611C114.338 57.7591 121.83 61.1017 128.157 61.1017H134.922C138.849 61.1017 141.941 60.0234 143.832 57.4356V61.1017H149.505V48.1266H149.396V48.0907Z" fill="#1C1C1C"/>
<path d="M204.965 38.0267H225.876V33.3542L204.965 36.4093V38.0267Z" fill="#1C1C1C"/>
<path d="M279.301 4.67246H300.212V0L279.301 3.05507V4.67246Z" fill="#1C1C1C"/>
<path d="M91.6093 35.4029C90.2273 54.8116 72.6619 62 56.2602 62H35.4218C19.1656 62 0 53.4098 0 31.0898C0 8.76983 19.2019 0.179688 35.4218 0.179688H56.2602C70.6617 0.179688 85.9723 6.79302 89.7909 24.2249H73.2801C70.7708 16.749 63.8246 14.4487 55.3874 14.4487H36.2946C25.1662 14.4487 16.4744 19.0133 16.4744 31.0898C16.4744 43.1664 25.1662 47.731 36.2946 47.731H55.3874C65.7157 47.731 73.8984 44.9994 75.0985 35.3669H91.6093V35.4029Z" fill="#1C1C1C"/>
<path d="M46.5855 42.8786C53.1533 42.8786 58.4776 37.6166 58.4776 31.1256C58.4776 24.6346 53.1533 19.3726 46.5855 19.3726C40.0176 19.3726 34.6934 24.6346 34.6934 31.1256C34.6934 37.6166 40.0176 42.8786 46.5855 42.8786Z" fill="#1C1C1C"/>
</svg>
