<svg width="209" height="29" viewBox="0 0 209 29" fill="none" xmlns="http://www.w3.org/2000/svg">
<g clip-path="url(#clip0_442_9686)">
<path d="M75.9276 13.0833C75.1543 12.9677 74.5022 12.9677 73.731 12.9677C71.1102 12.9677 69.3734 13.9192 69.3734 17.7663V28.5028H64.0522V8.02051H69.2981V11.5973C70.4915 9.04627 72.3433 8.05766 74.7739 8.05766C75.1188 8.05766 75.5849 8.09481 75.9297 8.13609V13.0833H75.9276Z" fill="white"/>
<path d="M97.139 15.023H92.0499C91.6256 13.0458 89.7739 11.6341 87.734 11.6341C84.9564 11.6341 82.7577 13.9601 82.7577 18.2221C82.7577 22.4841 84.8394 24.9257 87.7717 24.9257C89.6213 24.9257 91.5107 23.9742 92.2422 21.5367H97.3334C96.1003 27.132 91.8179 28.9998 87.5 28.9998C81.2927 28.9998 77.3217 24.5047 77.3217 18.3005C77.3217 12.0964 81.5226 7.56201 87.7319 7.56201C92.0854 7.56201 96.4054 9.96234 97.1369 15.0251L97.139 15.023Z" fill="white"/>
<path d="M105.827 10.7241C107.023 8.62925 109.259 7.5622 111.842 7.5622C116.814 7.5622 119.013 10.5322 119.013 15.597V28.5026H113.694V16.7383C113.694 14.1131 113.113 11.7912 110.105 11.7912C106.598 11.7912 105.827 14.6063 105.827 17.8425V28.5047H100.506V0.899902H105.827V10.7241Z" fill="white"/>
<path d="M128.819 3.14542C128.819 4.59635 127.628 5.77278 126.159 5.77278C124.689 5.77278 123.498 4.59635 123.498 3.14542C123.498 1.6945 124.689 0.518066 126.159 0.518066C127.628 0.518066 128.819 1.6945 128.819 3.14542ZM128.819 8.02038V28.5026H123.498V8.02038H128.819Z" fill="white"/>
<path d="M168.044 25.7987C166.849 27.8915 164.573 28.9977 161.988 28.9977C157.015 28.9977 155.009 25.9865 155.009 20.9629V8.02013H160.33V19.8216C160.33 22.5624 160.754 24.7688 163.724 24.7688C167.271 24.7688 168.044 21.9144 168.044 18.6761V8.01807H173.363V28.5003H168.044V25.7966V25.7987Z" fill="white"/>
<path d="M203.681 16.5854C203.681 14.3378 203.487 11.7889 200.362 11.7889C196.817 11.7889 196.236 14.7176 196.236 17.8403V28.5024H190.917V16.5854C190.917 14.3378 190.723 11.7889 187.598 11.7889C184.052 11.7889 183.473 14.7176 183.473 17.8403V28.5024H178.152V8.0202H183.473V10.7239C184.668 8.70542 186.75 7.56201 189.256 7.56201C192.765 7.56201 194.347 9.42779 195.154 10.9138C196.815 8.62905 198.855 7.56201 201.98 7.56201C207.184 7.56201 208.996 10.7611 208.996 15.5968V28.5024H203.677V16.5854H203.681Z" fill="white"/>
<path d="M61.6654 28.4778H55.6838L48.2058 0.910132V0.883301H53.738L61.6654 28.4778Z" fill="white"/>
<path d="M48.1912 0.883301L48.2058 0.910132L40.7111 28.4778H34.7316L42.6589 0.883301H48.1912Z" fill="white"/>
<path d="M48.2058 0.883301V0.910132L48.1912 0.883301H48.2058Z" fill="white"/>
<path d="M152.971 8.01807L147.663 28.5024H136.529L131.221 8.01807H136.809L142.089 28.4198L147.37 8.01807H152.971Z" fill="white"/>
<path d="M0 6.75105V0H1.30207V2.38382C1.57586 1.90912 2.12344 1.63049 2.76298 1.63049C3.98981 1.63049 4.97002 2.67276 4.97002 4.24753C4.97002 5.82229 3.971 6.87282 2.76298 6.87282C2.23421 6.87282 1.6302 6.67675 1.30207 6.11949V6.75311H0V6.75105ZM3.60316 4.25578C3.60316 3.27749 3.12246 2.61704 2.44321 2.61704C1.72634 2.61704 1.25609 3.24034 1.25609 4.24753C1.25609 5.25471 1.72843 5.88627 2.44321 5.88627C3.12246 5.88627 3.60316 5.23408 3.60316 4.25785V4.25578Z" fill="white"/>
<path d="M7.1081 6.75105H5.80603V0H7.1081V6.75105Z" fill="white"/>
<path d="M9.57844 0V1.19294H8.27637V0H9.57844ZM9.57844 1.74194V6.75311H8.27637V1.74194H9.57844Z" fill="white"/>
<path d="M12.0488 2.40227C12.3414 1.89042 12.889 1.63037 13.5201 1.63037C14.7365 1.63037 15.2737 2.35687 15.2737 3.59521V6.753H13.9716V3.87591C13.9716 3.23403 13.8295 2.66439 13.0938 2.66439C12.2348 2.66439 12.0467 3.35374 12.0467 4.14421V6.75093H10.7446V1.74182H12.0467V2.40227H12.0488Z" fill="white"/>
<path d="M17.6689 0V3.75219L19.5165 1.73988H20.9774L19.157 3.65931L21.0819 6.75105H19.621L18.2917 4.58188L17.6689 5.24233V6.75105H16.3668V0H17.6689Z" fill="white"/>
<path d="M22.4675 4.60034C22.5427 5.45686 23.1279 5.87583 23.7508 5.87583C24.1562 5.87583 24.5512 5.73549 24.8167 5.29794H26.1564C25.8826 6.04301 25.1469 6.8727 23.7612 6.8727C22.1289 6.8727 21.178 5.67151 21.178 4.22883C21.178 2.78616 22.2251 1.63037 23.7236 1.63037C25.2221 1.63037 26.2609 2.83157 26.2128 4.60034H22.4696H22.4675ZM22.4863 3.71492H24.8919C24.8626 2.86872 24.2607 2.56945 23.7131 2.56945C23.222 2.56945 22.5908 2.86872 22.4863 3.71492Z" fill="white"/>
<path d="M28.3508 2.40227C28.6434 1.89042 29.191 1.63037 29.8222 1.63037C31.0385 1.63037 31.5757 2.35687 31.5757 3.59521V6.753H30.2736V3.87591C30.2736 3.23403 30.1315 2.66439 29.3958 2.66439C28.5368 2.66439 28.3487 3.35374 28.3487 4.14421V6.75093H27.0466V1.74182H28.3487V2.40227H28.3508Z" fill="white"/>
<path d="M16.208 12.3255C16.208 10.565 17.4725 9.7002 18.7536 9.7002C20.0348 9.7002 21.2992 10.567 21.2992 12.3255C21.2992 14.0839 20.0348 14.9425 18.7536 14.9425C17.4725 14.9425 16.208 14.0757 16.208 12.3255ZM17.5289 12.3255C17.5289 13.3781 18.0388 13.9353 18.7557 13.9353C19.4726 13.9353 19.9825 13.376 19.9825 12.3255C19.9825 11.275 19.4726 10.7053 18.7557 10.7053C18.0388 10.7053 17.5289 11.2729 17.5289 12.3255Z" fill="white"/>
<path d="M25.0236 11.3184C24.9191 10.8995 24.5429 10.6023 23.9388 10.6023C23.4581 10.6023 23.1175 10.7798 23.1175 11.0873C23.1175 11.3576 23.316 11.562 23.7967 11.6652L24.476 11.8138C25.4854 12.0367 26.3423 12.2885 26.3423 13.3225C26.3423 14.3565 25.2953 14.9427 24.1458 14.9427C22.9022 14.9427 21.9575 14.309 21.8363 13.1636H23.0903C23.1655 13.6465 23.5062 14.0098 24.1834 14.0098C24.7498 14.0098 25.0988 13.8054 25.0988 13.4422C25.0988 13.0789 24.7121 12.9303 24.2691 12.8272L23.5146 12.6682C22.5615 12.4722 21.9304 12.0821 21.9304 11.1698C21.9304 10.2576 22.9106 9.67969 24.0057 9.67969C25.1009 9.67969 26.0623 10.1626 26.2399 11.3184H25.0236Z" fill="white"/>
<path d="M28.7752 14.9429C27.8033 14.9429 26.9464 14.3836 26.9464 13.4714C26.9464 12.2887 28.2861 11.9337 30.2841 11.7108V11.6283C30.2841 10.8543 29.8599 10.586 29.3311 10.586C28.8316 10.586 28.4157 10.8378 28.3885 11.3971H27.1721C27.2766 10.4106 28.0876 9.68408 29.398 9.68408C30.5956 9.68408 31.5862 10.2063 31.5862 11.8904C31.5862 12.039 31.5674 12.7201 31.5674 13.1659C31.5674 13.9564 31.6155 14.4042 31.7179 14.8232H30.5203C30.4827 14.6643 30.4639 14.4517 30.4346 14.1999C30.0668 14.7221 29.538 14.945 28.7752 14.945V14.9429ZM30.3218 12.5302C28.8609 12.6788 28.284 12.846 28.284 13.4053C28.284 13.7686 28.5662 14.0678 29.1618 14.0678C29.9832 14.0678 30.3218 13.6385 30.3218 12.9038V12.5323V12.5302Z" fill="white"/>
</g>
<defs>
<clipPath id="clip0_442_9686">
<rect width="209" height="29" fill="white"/>
</clipPath>
</defs>
</svg>
