<svg width="83" height="39" viewBox="0 0 83 39" fill="none" xmlns="http://www.w3.org/2000/svg">
<path d="M82.8212 38.9211H74.7876L64.7441 1.2437V1.20703H72.1743L82.8212 38.9211Z" fill="white"/>
<path d="M64.7236 1.20703L64.7432 1.2437L54.6773 38.9211H46.6465L57.2934 1.20703H64.7236Z" fill="white"/>
<path d="M0 9.22683V0H1.74876V3.25802C2.11648 2.60924 2.85191 2.22843 3.71086 2.22843C5.35857 2.22843 6.67505 3.65293 6.67505 5.8052C6.67505 7.95747 5.33331 9.39326 3.71086 9.39326C3.00069 9.39326 2.18946 9.12528 1.74876 8.36367V9.22965H0V9.22683ZM4.83927 5.81649C4.83927 4.47943 4.19366 3.57677 3.28139 3.57677C2.31858 3.57677 1.68701 4.42865 1.68701 5.8052C1.68701 7.18175 2.32139 8.04492 3.28139 8.04492C4.19366 8.04492 4.83927 7.15354 4.83927 5.81931V5.81649Z" fill="white"/>
<path d="M9.54759 9.22683H7.79883V0H9.54759V9.22683Z" fill="white"/>
<path d="M12.864 0V1.63042H11.1152V0H12.864ZM12.864 2.38075V9.22965H11.1152V2.38075H12.864Z" fill="white"/>
<path d="M16.1832 3.28349C16.5762 2.58394 17.3116 2.22852 18.1593 2.22852C19.793 2.22852 20.5144 3.22144 20.5144 4.91392V9.22974H18.7657V5.29754C18.7657 4.42028 18.5748 3.64174 17.5867 3.64174C16.433 3.64174 16.1804 4.58388 16.1804 5.66425V9.22691H14.4316V2.38084H16.1804V3.28349H16.1832Z" fill="white"/>
<path d="M23.7312 0V5.12821L26.2126 2.37793H28.1747L25.7298 5.00128L28.315 9.22683H26.3529L24.5677 6.26217L23.7312 7.16483V9.22683H21.9824V0H23.7312Z" fill="white"/>
<path d="M30.1753 6.28764C30.2763 7.45827 31.0623 8.0309 31.8988 8.0309C32.4433 8.0309 32.9739 7.83908 33.3304 7.24107H35.1296C34.7619 8.25938 33.7739 9.39334 31.9128 9.39334C29.7205 9.39334 28.4434 7.75164 28.4434 5.7799C28.4434 3.80816 29.8497 2.22852 31.8623 2.22852C33.8749 2.22852 35.27 3.87022 35.2054 6.28764H30.1781H30.1753ZM30.2005 5.07752H33.4314C33.3921 3.92099 32.5837 3.51198 31.8483 3.51198C31.1886 3.51198 30.3409 3.92099 30.2005 5.07752Z" fill="white"/>
<path d="M38.0758 3.28349C38.4688 2.58394 39.2042 2.22852 40.0519 2.22852C41.6856 2.22852 42.407 3.22144 42.407 4.91392V9.22974H40.6582V5.29754C40.6582 4.42028 40.4674 3.64174 39.4793 3.64174C38.3256 3.64174 38.073 4.58388 38.073 5.66425V9.22691H36.3242V2.38084H38.073V3.28349H38.0758Z" fill="white"/>
<path d="M21.7676 16.8459C21.7676 14.4397 23.4658 13.2578 25.1865 13.2578C26.9072 13.2578 28.6054 14.4425 28.6054 16.8459C28.6054 19.2492 26.9072 20.4226 25.1865 20.4226C23.4658 20.4226 21.7676 19.2379 21.7676 16.8459ZM23.5416 16.8459C23.5416 18.2845 24.2265 19.0461 25.1893 19.0461C26.1521 19.0461 26.837 18.2817 26.837 16.8459C26.837 15.4101 26.1521 14.6315 25.1893 14.6315C24.2265 14.6315 23.5416 15.4073 23.5416 16.8459Z" fill="white"/>
<path d="M33.6088 15.4692C33.4685 14.8966 32.9632 14.4904 32.152 14.4904C31.5064 14.4904 31.0488 14.733 31.0488 15.1533C31.0488 15.5228 31.3155 15.8021 31.9611 15.9431L32.8734 16.1462C34.2292 16.4508 35.38 16.795 35.38 18.2082C35.38 19.6214 33.9737 20.4225 32.4299 20.4225C30.7597 20.4225 29.4909 19.5565 29.3281 17.991H31.0123C31.1134 18.6511 31.5709 19.1475 32.4804 19.1475C33.2411 19.1475 33.7099 18.8683 33.7099 18.3718C33.7099 17.8753 33.1906 17.6722 32.5955 17.5312L31.5821 17.314C30.3022 17.046 29.4544 16.5129 29.4544 15.2661C29.4544 14.0193 30.7709 13.2295 32.2418 13.2295C33.7127 13.2295 35.0039 13.8896 35.2425 15.4692H33.6088Z" fill="white"/>
<path d="M38.6475 20.4223C37.3423 20.4223 36.1914 19.6578 36.1914 18.411C36.1914 16.7947 37.9907 16.3095 40.6742 16.0049V15.8921C40.6742 14.8343 40.1044 14.4676 39.3942 14.4676C38.7233 14.4676 38.1647 14.8117 38.1282 15.5761H36.4946C36.6349 14.2278 37.724 13.2349 39.484 13.2349C41.0924 13.2349 42.423 13.9485 42.423 16.2503C42.423 16.4534 42.3977 17.3843 42.3977 17.9936C42.3977 19.0739 42.4622 19.686 42.5998 20.2587H40.9914C40.9409 20.0414 40.9156 19.7509 40.8763 19.4068C40.3823 20.1204 39.6721 20.4251 38.6475 20.4251V20.4223ZM40.7247 17.1247C38.7626 17.3278 37.9879 17.5563 37.9879 18.3208C37.9879 18.8172 38.3668 19.2262 39.1668 19.2262C40.27 19.2262 40.7247 18.6395 40.7247 17.6353V17.1276V17.1247Z" fill="white"/>
</svg>
