<svg width="117" height="40" viewBox="0 0 117 40" fill="none" xmlns="http://www.w3.org/2000/svg">
<g clip-path="url(#clip0_949_10095)">
<path d="M47.409 0.682373V6.58826H46.707V0.682373H47.409Z" fill="white"/>
<path d="M54.0298 0.682373V6.58826H53.1406L50.6836 2.63531L50.0752 1.52943L50.122 2.42355V6.58826H49.4434V0.682373H50.3326L52.7662 4.61179L53.398 5.7412L53.3512 4.84708V0.682373H54.0298Z" fill="white"/>
<path d="M60.1603 0.682373V1.36473H58.1245V6.58826H57.4225V1.36473H55.3867V0.682373H60.1603Z" fill="white"/>
<path d="M61.4941 6.58826V0.682373H65.6125V1.36473H62.1961V3.27061H64.8403V3.95296H62.1961V5.92943H65.7529V6.58826H61.4941Z" fill="white"/>
<path d="M69.4749 0.682373C70.0833 0.682373 70.5513 0.847079 70.9257 1.15296C71.2767 1.45884 71.4639 1.88237 71.4639 2.42355C71.4639 2.96473 71.2767 3.36473 70.9023 3.67061C70.5513 3.95296 70.0599 4.11767 69.4515 4.11767L69.3813 4.16473H67.9305V6.58826H67.2285V0.682373H69.4749ZM69.4749 3.45884C69.8961 3.45884 70.2003 3.36473 70.4109 3.20002C70.6215 3.01179 70.7151 2.75296 70.7151 2.40002C70.7151 2.04708 70.6215 1.78826 70.4109 1.62355C70.2003 1.43531 69.8961 1.36473 69.4749 1.36473H67.9773V3.48237H69.4749V3.45884ZM69.8961 3.60002L71.8383 6.58826H70.9959L69.3111 4.00002L69.8961 3.60002Z" fill="white"/>
<path d="M77.8754 0.682373V6.58826H76.9862L74.5292 2.63531L73.8974 1.52943L73.9442 2.42355V6.58826H73.2656V0.682373H74.1548L76.5884 4.61179L77.2202 5.7412L77.1734 4.84708V0.682373H77.8754Z" fill="white"/>
<path d="M84.5675 6.58826H83.8187L83.1869 4.9412H80.5193L79.8875 6.58826H79.1387L81.4319 0.682373H82.2743L84.5675 6.58826ZM80.7767 4.28237H82.9295L81.8531 1.38826L80.7767 4.28237Z" fill="white"/>
<path d="M89.1779 0.682373V1.36473H87.1421V6.58826H86.4401V1.36473H84.4043V0.682373H89.1779Z" fill="white"/>
<path d="M91.2137 0.682373V6.58826H90.5117V0.682373H91.2137Z" fill="white"/>
<path d="M95.5894 0.588379C96.151 0.588379 96.619 0.706026 97.0402 0.964849C97.438 1.20014 97.7656 1.55308 97.9762 2.00014C98.2102 2.4472 98.3038 2.98838 98.3038 3.62367C98.3038 4.25897 98.1868 4.80014 97.9762 5.2472C97.7656 5.69426 97.438 6.0472 97.0402 6.30603C96.6424 6.54132 96.151 6.6825 95.5894 6.6825C95.0278 6.6825 94.5598 6.56485 94.1386 6.30603C93.7408 6.0472 93.4132 5.69426 93.2026 5.2472C92.992 4.80014 92.875 4.25897 92.875 3.62367C92.875 2.98838 92.992 2.4472 93.2026 2.00014C93.4366 1.55308 93.7408 1.20014 94.1386 0.964849C94.5364 0.729555 95.0278 0.588379 95.5894 0.588379ZM95.5894 1.27073C95.1916 1.27073 94.8406 1.36485 94.5364 1.55308C94.2322 1.74132 94.0216 2.00014 93.8578 2.37661C93.694 2.72956 93.6238 3.15308 93.6238 3.6472C93.6238 4.14132 93.694 4.56485 93.8578 4.91779C94.0216 5.27073 94.2556 5.52956 94.5364 5.74132C94.8406 5.92956 95.1916 6.02367 95.5894 6.02367C95.9872 6.02367 96.3382 5.92956 96.6424 5.74132C96.9466 5.55308 97.1572 5.27073 97.321 4.91779C97.4848 4.56485 97.555 4.14132 97.555 3.6472C97.555 3.15308 97.4848 2.72956 97.321 2.37661C97.1572 2.02367 96.9232 1.74132 96.6424 1.55308C96.3382 1.36485 95.9872 1.27073 95.5894 1.27073Z" fill="white"/>
<path d="M104.575 0.682373V6.58826H103.685L101.228 2.63531L100.597 1.52943L100.643 2.42355V6.58826H99.9648V0.682373H100.854L103.288 4.61179L103.919 5.7412L103.873 4.84708V0.682373H104.575Z" fill="white"/>
<path d="M111.245 6.58826H110.496L109.865 4.9412H107.197L106.565 6.58826H105.816L108.11 0.682373H108.952L111.245 6.58826ZM107.478 4.28237H109.631L108.554 1.38826L107.478 4.28237Z" fill="white"/>
<path d="M113.257 5.9059H116.626V6.58826H112.555V0.682373H113.257V5.9059Z" fill="white"/>
<path d="M51.3168 11.2705V17.1764H50.6148V11.2705H51.3168ZM47.409 11.2705V17.1764H46.707V11.2705H47.409ZM50.9424 13.8587V14.5411H47.0814V13.8587H50.9424Z" fill="white"/>
<path d="M57.9848 11.2705V14.9646C57.9848 15.7176 57.7976 16.2823 57.3998 16.6823C57.002 17.0587 56.4404 17.247 55.6916 17.247C54.9662 17.247 54.3812 17.0587 53.9834 16.6823C53.5856 16.3058 53.3984 15.7176 53.3984 14.9646V11.2705H54.1004V14.7999C54.1004 15.4117 54.2174 15.8587 54.4748 16.1646C54.7322 16.447 55.13 16.6117 55.6916 16.6117C56.2298 16.6117 56.6276 16.4705 56.885 16.1646C57.1424 15.8823 57.2828 15.4117 57.2828 14.7999V11.2705H57.9848Z" fill="white"/>
<path d="M65.7312 11.2705V17.1764H65.0526V13.4587L65.1228 11.9058L63.204 17.1764H62.5956L60.6768 11.9058L60.747 13.4587V17.1764H60.0684V11.2705H61.1682L62.4552 14.847L62.8998 16.3293H62.9232L63.3678 14.8705L64.6548 11.2705H65.7312Z" fill="white"/>
<path d="M72.6104 17.1764H71.8382L71.2064 15.5293H68.5622L67.9304 17.1764H67.1816L69.4748 11.2705H70.3172L72.6104 17.1764ZM68.8196 14.8705H70.9724L69.896 11.9764L68.8196 14.8705Z" fill="white"/>
<path d="M78.6703 11.2705V17.1764H77.7811L75.3241 13.2234L74.6923 12.1176L74.7391 13.0117V17.1764H74.0605V11.2705H74.9497L77.3833 15.1999L78.0151 16.3293L77.9683 15.4352V11.2705H78.6703Z" fill="white"/>
<path d="M86.3694 11.2705C86.9778 11.2705 87.4458 11.4352 87.8202 11.7411C88.1712 12.047 88.3584 12.4705 88.3584 13.0117C88.3584 13.5529 88.1712 13.9529 87.7968 14.2587C87.4458 14.5411 86.9544 14.7058 86.346 14.7058L86.2758 14.7529H84.825V17.1764H84.123V11.2705H86.3694ZM86.3694 14.047C86.7906 14.047 87.0948 13.9529 87.3054 13.7882C87.516 13.5999 87.6096 13.3411 87.6096 12.9882C87.6096 12.6352 87.516 12.3764 87.3054 12.2117C87.0948 12.0234 86.7906 11.9529 86.3694 11.9529H84.8718V14.0705H86.3694V14.047ZM86.7672 14.1882L88.7094 17.1764H87.867L86.1822 14.5882L86.7672 14.1882Z" fill="white"/>
<path d="M91.0497 11.2705V17.1764H90.3477V11.2705H91.0497Z" fill="white"/>
<path d="M95.5894 17.2706C95.0278 17.2706 94.5598 17.153 94.1386 16.8942C93.7408 16.6353 93.4132 16.2824 93.2026 15.8353C92.992 15.3883 92.875 14.8471 92.875 14.2118C92.875 13.5765 92.992 13.0353 93.226 12.5883C93.46 12.1412 93.7876 11.7883 94.2088 11.553C94.63 11.2942 95.1214 11.1765 95.6596 11.1765C96.2446 11.1765 96.7126 11.2942 97.0636 11.5059C97.438 11.7177 97.7188 12.0706 97.9528 12.5177L97.2976 12.8706C97.1572 12.5412 96.97 12.2824 96.6658 12.0942C96.385 11.9059 96.034 11.8353 95.6362 11.8353C95.2384 11.8353 94.8874 11.9295 94.5832 12.1177C94.279 12.3059 94.045 12.5647 93.8578 12.9412C93.694 13.2942 93.6004 13.7177 93.6004 14.2118C93.6004 14.7059 93.6706 15.1295 93.8344 15.4824C93.9982 15.8353 94.2088 16.0942 94.513 16.3059C94.8172 16.4942 95.1916 16.5883 95.6128 16.5883C95.8468 16.5883 96.0808 16.5647 96.2914 16.4942C96.502 16.4236 96.6892 16.3295 96.853 16.2118C97.0168 16.0942 97.1338 15.9295 97.2274 15.7412C97.321 15.553 97.3678 15.3177 97.3678 15.0824V14.8706H95.4958V14.2118H98.023V17.1765H97.4614L97.4146 16.0706L97.555 16.0942C97.3912 16.4706 97.1572 16.753 96.8296 16.9412C96.502 17.153 96.0808 17.2706 95.5894 17.2706Z" fill="white"/>
<path d="M104.528 11.2705V17.1764H103.826V11.2705H104.528ZM100.643 11.2705V17.1764H99.9414V11.2705H100.643ZM104.153 13.8587V14.5411H100.292V13.8587H104.153Z" fill="white"/>
<path d="M110.846 11.2705V11.9529H108.81V17.1764H108.108V11.9529H106.072V11.2705H110.846Z" fill="white"/>
<path d="M113.98 11.1765C114.495 11.1765 114.94 11.2942 115.314 11.5059C115.689 11.7177 115.993 12.0236 116.25 12.4471L115.665 12.9177C115.455 12.5412 115.197 12.2589 114.916 12.1177C114.636 11.953 114.308 11.8824 113.91 11.8824C113.606 11.8824 113.325 11.9295 113.138 12.0236C112.927 12.1177 112.787 12.2353 112.693 12.3765C112.6 12.5177 112.553 12.6824 112.553 12.8706C112.553 13.0824 112.623 13.2706 112.74 13.4353C112.881 13.6 113.138 13.7177 113.512 13.8118L114.776 14.0942C115.338 14.2118 115.735 14.4 115.946 14.6589C116.18 14.9177 116.274 15.2236 116.274 15.6C116.274 15.9295 116.18 16.2353 115.993 16.4942C115.806 16.753 115.548 16.9412 115.221 17.0824C114.893 17.2236 114.495 17.2942 114.027 17.2942C113.606 17.2942 113.232 17.2471 112.904 17.1295C112.576 17.0118 112.319 16.8471 112.085 16.6589C111.851 16.4706 111.664 16.2353 111.523 16L112.155 15.4824C112.272 15.7177 112.413 15.9059 112.6 16.0706C112.787 16.2353 112.998 16.3765 113.232 16.4706C113.489 16.5647 113.77 16.6118 114.097 16.6118C114.402 16.6118 114.659 16.5647 114.87 16.4942C115.104 16.4236 115.267 16.3059 115.384 16.1647C115.501 16.0236 115.572 15.8353 115.572 15.6236C115.572 15.4353 115.501 15.2706 115.384 15.1059C115.267 14.9412 115.033 14.8236 114.682 14.753L113.302 14.4471C112.951 14.353 112.647 14.2589 112.413 14.1177C112.202 13.9765 112.038 13.7883 111.921 13.6C111.828 13.3883 111.781 13.1765 111.781 12.9412C111.781 12.6353 111.874 12.3295 112.038 12.0706C112.225 11.8118 112.459 11.5765 112.787 11.4353C113.138 11.2706 113.536 11.1765 113.98 11.1765Z" fill="white"/>
<path d="M48.6024 21.8589C49.515 21.8589 50.2404 22.1177 50.7552 22.6354C51.2934 23.153 51.5508 23.8589 51.5508 24.8236C51.5508 25.7883 51.2934 26.4942 50.7552 27.0118C50.2404 27.5295 49.515 27.7648 48.6024 27.7648H46.707V21.8589H48.6024ZM48.6726 27.1059C49.3512 27.1059 49.866 26.9177 50.2404 26.5177C50.6148 26.1177 50.802 25.553 50.802 24.8471C50.802 24.1412 50.6148 23.5765 50.2404 23.1765C49.866 22.7765 49.3512 22.5648 48.6726 22.5648H47.409V27.1295H48.6726V27.1059Z" fill="white"/>
<path d="M55.9273 21.7649C56.4889 21.7649 56.9569 21.8825 57.3781 22.1414C57.7759 22.3767 58.1035 22.7296 58.3141 23.1767C58.5481 23.6237 58.6417 24.1649 58.6417 24.8002C58.6417 25.4355 58.5247 25.9767 58.3141 26.4237C58.1035 26.8708 57.7759 27.2237 57.3781 27.4825C56.9803 27.7178 56.4889 27.859 55.9273 27.859C55.3657 27.859 54.8977 27.7414 54.4765 27.4825C54.0787 27.2237 53.7511 26.8708 53.5405 26.4237C53.3299 25.9767 53.2129 25.4355 53.2129 24.8002C53.2129 24.1649 53.3299 23.6237 53.5405 23.1767C53.7745 22.7296 54.0787 22.3767 54.4765 22.1414C54.8977 21.9061 55.3657 21.7649 55.9273 21.7649ZM55.9273 22.4472C55.5295 22.4472 55.1785 22.5414 54.8743 22.7296C54.5701 22.9178 54.3595 23.1767 54.1957 23.5531C54.0319 23.9061 53.9617 24.3296 53.9617 24.8237C53.9617 25.3178 54.0319 25.7414 54.1957 26.0943C54.3595 26.4472 54.5935 26.7061 54.8743 26.9178C55.1785 27.1061 55.5295 27.2002 55.9273 27.2002C56.3251 27.2002 56.6761 27.1061 56.9803 26.9178C57.2845 26.7296 57.4951 26.4472 57.6589 26.0943C57.8227 25.7414 57.8929 25.3178 57.8929 24.8237C57.8929 24.3296 57.8227 23.9061 57.6589 23.5531C57.4951 23.2002 57.2611 22.9178 56.9803 22.7296C56.6761 22.5414 56.3251 22.4472 55.9273 22.4472Z" fill="white"/>
<path d="M65.3805 26.259C65.2635 26.5884 65.0763 26.8708 64.8423 27.1296C64.6083 27.3649 64.3275 27.5531 64.0233 27.6708C63.7191 27.7884 63.3681 27.859 63.0171 27.859C62.4555 27.859 61.9875 27.7414 61.5663 27.4825C61.1685 27.2237 60.8409 26.8708 60.6303 26.4237C60.4197 25.9767 60.3027 25.4355 60.3027 24.8002C60.3027 24.1649 60.4197 23.6237 60.6303 23.1767C60.8643 22.7296 61.1685 22.3767 61.5663 22.1414C61.9641 21.8825 62.4555 21.7649 62.9937 21.7649C63.3681 21.7649 63.7191 21.812 63.9999 21.9296C64.3041 22.0237 64.5381 22.1884 64.7487 22.4002C64.9593 22.612 65.1231 22.8472 65.2635 23.1531L64.5615 23.4825C64.4211 23.1531 64.2339 22.8943 63.9999 22.7061C63.7659 22.5178 63.4383 22.4472 63.0405 22.4472C62.6427 22.4472 62.2917 22.5414 61.9875 22.7296C61.6833 22.9178 61.4493 23.1767 61.2855 23.5296C61.1217 23.8825 61.0281 24.3061 61.0281 24.8002C61.0281 25.2943 61.0983 25.7178 61.2621 26.0708C61.4259 26.4237 61.6599 26.6825 61.9407 26.8943C62.2449 27.0825 62.5959 27.1767 62.9937 27.1767C63.3915 27.1767 63.7191 27.0825 64.0233 26.8708C64.3041 26.659 64.5147 26.3767 64.6551 25.9767L65.3805 26.259Z" fill="white"/>
<path d="M71.6977 21.8589V25.553C71.6977 26.3059 71.5105 26.8707 71.1127 27.2707C70.7149 27.6471 70.1533 27.8354 69.4045 27.8354C68.6791 27.8354 68.0941 27.6471 67.6963 27.2707C67.2985 26.8942 67.1113 26.3059 67.1113 25.553V21.8589H67.8133V25.3883C67.8133 26.0001 67.9303 26.4471 68.1877 26.753C68.4451 27.0354 68.8429 27.2001 69.4045 27.2001C69.9427 27.2001 70.3405 27.0589 70.5979 26.753C70.8553 26.4707 70.9957 26.0001 70.9957 25.3883V21.8589H71.6977Z" fill="white"/>
<path d="M79.6081 21.8589V27.7648H78.9295V24.0471L78.9997 22.4942L77.0809 27.7648H76.4725L74.5537 22.4942L74.6239 24.0471V27.7648H73.9453V21.8589H75.0451L76.3321 25.4354L76.7767 26.9177H76.8001L77.2447 25.4589L78.5317 21.8589H79.6081Z" fill="white"/>
<path d="M81.9707 27.7648V21.8589H86.0891V22.5177H82.6727V24.4236H85.3169V25.0824H82.6727V27.0589H86.2061V27.7177H81.9707V27.7648Z" fill="white"/>
<path d="M92.6879 21.8589V27.7648H91.7987L89.3417 23.8118L88.7099 22.7059L88.7567 23.6001V27.7648H88.0781V21.8589H88.9673L91.4009 25.7883L92.0327 26.9177L91.9859 26.0236V21.8589H92.6879Z" fill="white"/>
<path d="M99.1916 21.8589V22.5177H97.1558V27.7648H96.4538V22.5412H94.418V21.8824H99.1916V21.8589Z" fill="white"/>
<path d="M104.761 27.7648H104.012L103.38 26.1177H100.713L100.081 27.7648H99.332L101.625 21.8589H102.468L104.761 27.7648ZM100.97 25.4589H103.123L102.046 22.5648L100.97 25.4589Z" fill="white"/>
<path d="M108.598 21.8589C109.206 21.8589 109.674 22.0236 110.049 22.3295C110.4 22.6354 110.587 23.0589 110.587 23.6001C110.587 24.1412 110.4 24.5412 110.025 24.8471C109.674 25.1295 109.183 25.2942 108.575 25.2942L108.504 25.3412H107.054V27.7648H106.352V21.8589H108.598ZM108.598 24.6354C109.019 24.6354 109.323 24.5412 109.534 24.3765C109.745 24.1883 109.838 23.9295 109.838 23.5765C109.838 23.2236 109.745 22.9648 109.534 22.8001C109.323 22.6118 109.019 22.5412 108.598 22.5412H107.1V24.6589H108.598V24.6354ZM109.019 24.7765L110.961 27.7648H110.119L108.434 25.1765L109.019 24.7765Z" fill="white"/>
<path d="M116.578 21.8589L114.472 25.4589V27.7648H113.77V25.4589L111.664 21.8589H112.506L113.653 23.8824L114.121 24.7295L114.589 23.8824L115.736 21.8589H116.578Z" fill="white"/>
<path d="M50.8235 33.1294H47.4305V35.0353H50.0747V35.7176H47.4305V38.3529H46.7285V32.447H50.8469V33.1294H50.8235Z" fill="white"/>
<path d="M53.3758 32.447V38.3529H52.6738V32.447H53.3758Z" fill="white"/>
<path d="M56.534 37.6706H59.9036V38.3529H55.832V32.447H56.534V37.6706Z" fill="white"/>
<path d="M67.3444 32.447V38.3529H66.6658V34.6353L66.736 33.0823L64.8172 38.3529H64.2088L62.29 33.0823L62.3602 34.6353V38.3529H61.6816V32.447H62.7814L64.0684 36.0235L64.513 37.5058H64.5364L64.981 36.047L66.268 32.447H67.3444Z" fill="white"/>
<path d="M77.4778 33.1294H74.0848V35.0353H76.729V35.7176H74.0848V38.3529H73.3828V32.447H77.5012V33.1294H77.4778Z" fill="white"/>
<path d="M79.3262 38.3529V32.447H83.4446V33.1294H80.0282V35.0353H82.6724V35.7176H80.0282V37.6941H83.5616V38.3764H79.3262V38.3529Z" fill="white"/>
<path d="M87.4218 32.353C87.9366 32.353 88.3812 32.4707 88.7556 32.6824C89.13 32.8942 89.4342 33.2001 89.6916 33.6236L89.1066 34.0942C88.896 33.7177 88.6386 33.4354 88.3578 33.2942C88.077 33.1295 87.7494 33.0589 87.3516 33.0589C87.0474 33.0589 86.7666 33.106 86.5794 33.2001C86.3688 33.2942 86.2284 33.4119 86.1348 33.553C86.0412 33.6942 85.9944 33.8589 85.9944 34.0471C85.9944 34.2589 86.0646 34.4471 86.1816 34.6119C86.322 34.7766 86.5794 34.8942 86.9538 34.9883L88.2174 35.2707C88.779 35.3883 89.1768 35.5766 89.3874 35.8354C89.6214 36.0942 89.715 36.4001 89.715 36.7766C89.715 37.106 89.6214 37.4119 89.4342 37.6707C89.247 37.9295 88.9896 38.1177 88.662 38.2589C88.3344 38.4001 87.9366 38.4707 87.4686 38.4707C87.0474 38.4707 86.673 38.4236 86.3454 38.306C86.0178 38.1883 85.7604 38.0236 85.5264 37.8354C85.2924 37.6471 85.1052 37.4119 84.9648 37.1766L85.5966 36.6589C85.7136 36.8942 85.854 37.0824 86.0412 37.2471C86.2284 37.4119 86.439 37.553 86.673 37.6471C86.9304 37.7413 87.2112 37.7883 87.5388 37.7883C87.843 37.7883 88.1004 37.7413 88.311 37.6707C88.545 37.6001 88.7088 37.4824 88.8258 37.3413C88.9428 37.2001 89.013 37.0118 89.013 36.8001C89.013 36.6118 88.9428 36.4471 88.8258 36.2824C88.7088 36.1177 88.4748 36.0001 88.1238 35.9295L86.7432 35.6236C86.3922 35.5295 86.088 35.4354 85.854 35.2942C85.6434 35.153 85.4796 34.9648 85.3626 34.7766C85.269 34.5648 85.2222 34.353 85.2222 34.1177C85.2222 33.8119 85.3158 33.506 85.4796 33.2471C85.6668 32.9883 85.9008 32.753 86.2284 32.6119C86.5794 32.4471 86.9772 32.353 87.4218 32.353Z" fill="white"/>
<path d="M95.6115 32.447V33.1294H93.5757V38.3529H92.8737V33.1294H90.8379V32.447H95.6115Z" fill="white"/>
<path d="M98.0926 32.447V38.3529H97.3906V32.447H98.0926Z" fill="white"/>
<path d="M105.113 32.447L102.89 38.3529H102.071L99.8477 32.447H100.62L102.117 36.5176L102.492 37.6941L102.866 36.5411L104.364 32.447H105.113Z" fill="white"/>
<path d="M111.009 38.3529H110.26L109.628 36.7058H106.961L106.329 38.3529H105.58L107.873 32.447H108.716L111.009 38.3529ZM107.218 36.047H109.371L108.294 33.1294L107.218 36.047Z" fill="white"/>
<path d="M113.442 37.6706H116.812V38.3529H112.74V32.447H113.442V37.6706Z" fill="white"/>
<path d="M16.2617 39.7646L12.1667 20.4705L7.7207 39.7646" stroke="white" stroke-width="2"/>
<path d="M29.6484 34.8235V32.5647L35.3814 34.0471V38.2823L29.6484 39.6706V37.2941L35.0538 36.1412L29.6484 34.8235Z" fill="white"/>
<path d="M32.9226 25.4353H33.0396V29.3412C33.6012 29.2 33.882 28.753 33.882 27.8588C33.882 27.553 33.8586 26.7765 33.5544 25.8118H35.1456C35.4264 26.6353 35.4966 27.3882 35.4966 28C35.4966 30.2824 34.2798 31.6235 32.5248 31.6235C30.7698 31.6235 29.553 30.2588 29.553 28.5412C29.5296 26.753 30.9336 25.4353 32.9226 25.4353ZM31.308 28.5412C31.308 29.0118 31.6122 29.3647 32.3844 29.4118V27.6706C31.6122 27.7177 31.308 28 31.308 28.5412Z" fill="white"/>
<path d="M32.3627 21.4588C30.7949 21.3412 29.5312 20.7294 29.5312 19.6235H32.0117V20.4941C32.0117 21.0588 32.3861 21.4353 32.9477 21.4353H35.3812V23.6941H29.6482V21.4353H32.3627V21.4588Z" fill="white"/>
<path d="M33.7435 18.1647V12.3765H35.4049V18.4706H32.0353L31.3333 12.9176V18.3529H29.6719V12.5647H32.9947L33.7435 18.1647Z" fill="white"/>
<path d="M29.2032 9.45879C29.2032 10.1411 28.665 10.6823 27.9864 10.6823C27.3312 10.6823 26.793 10.1411 26.793 9.45879C26.793 8.77644 27.3312 8.25879 27.9864 8.25879C28.665 8.25879 29.2032 8.79997 29.2032 9.45879ZM35.3808 10.6117H29.6478V8.35291H35.3808V10.6117Z" fill="white"/>
<path d="M29.1569 4.6117L28.1273 4.96464L27.1445 2.18817L28.1507 1.83523L29.1569 4.6117ZM35.4983 3.36464C35.4983 5.19994 34.3049 6.6117 32.5265 6.6117C30.7481 6.6117 29.5547 5.19994 29.5547 3.36464C29.5547 1.52935 30.7481 0.141113 32.5265 0.141113C34.3049 0.141113 35.4983 1.50582 35.4983 3.36464ZM33.4859 3.36464C33.4859 2.87053 33.1349 2.51758 32.5265 2.51758C31.9181 2.51758 31.5671 2.89405 31.5671 3.36464C31.5671 3.85876 31.9181 4.2117 32.5265 4.2117C33.1349 4.2117 33.4859 3.85876 33.4859 3.36464Z" fill="white"/>
<path d="M24.6168 0.30594C24.5232 0.729469 24.4062 1.153 24.3126 1.60006C23.3064 5.52947 22.3236 9.48241 21.3174 13.4118C20.7792 15.5295 20.1942 17.6471 19.656 19.7648C19.4454 20.5648 19.4454 20.5648 18.6264 20.5648C14.1102 20.5648 9.5706 20.5648 5.031 20.5648C4.7034 20.5648 4.5864 20.4706 4.4928 20.1412C3.3696 15.4118 2.223 10.6354 1.0998 5.88241C0.7254 4.32947 0.3978 2.753 0.0702 1.20006C0 0.894175 0.0234 0.588293 0 0.235352C0.1638 0.235352 0.3042 0.235352 0.4446 0.235352C2.8548 0.235352 5.2416 0.235352 7.6518 0.235352C8.0496 0.235352 8.1666 0.376528 8.2368 0.729469C8.7282 3.10594 9.1962 5.50594 9.711 7.88241C10.4832 11.5765 11.2788 15.2471 12.051 18.9412C12.0744 19.0589 12.0978 19.153 12.1446 19.2706C12.1914 19.2706 12.2148 19.2706 12.2616 19.2706C12.3318 18.9648 12.402 18.6824 12.4722 18.3765C12.8466 16.7059 13.221 15.0354 13.6188 13.3648C14.4846 9.62359 15.3504 5.88241 16.2396 2.16476C16.38 1.60006 16.497 1.03535 16.6608 0.470646C16.6842 0.376528 16.8246 0.258881 16.8948 0.258881C19.4454 0.258881 21.996 0.258881 24.5466 0.258881C24.57 0.258881 24.57 0.258881 24.6168 0.30594Z" fill="white"/>
</g>
<defs>
<clipPath id="clip0_949_10095">
<rect width="117" height="40" fill="white"/>
</clipPath>
</defs>
</svg>
