<svg width="131" height="144" viewBox="0 0 131 144" fill="none" xmlns="http://www.w3.org/2000/svg">
<g clip-path="url(#clip0_858_13305)">
<path d="M59.8986 143.489L44.8164 73.6189L28.4414 143.489" stroke="#1C1C1C" stroke-width="2"/>
<path d="M109.195 125.595V117.415L130.31 122.783V138.121L109.195 143.148V134.542L129.104 130.367L109.195 125.595Z" fill="#1C1C1C"/>
<path d="M121.261 91.5977H121.692V105.742C123.761 105.231 124.795 103.612 124.795 100.374C124.795 99.2663 124.709 96.4545 123.588 92.961H129.449C130.483 95.9432 130.741 98.6698 130.741 100.885C130.741 109.15 126.26 114.007 119.796 114.007C113.332 114.007 108.851 109.065 108.851 102.845C108.764 96.3693 113.936 91.5977 121.261 91.5977ZM115.314 102.845C115.314 104.549 116.435 105.827 119.279 105.998V99.6923C116.435 99.8627 115.314 100.885 115.314 102.845Z" fill="#1C1C1C"/>
<path d="M119.192 77.1977C113.418 76.7716 108.764 74.5562 108.764 70.5515H117.899V73.7042C117.899 75.7491 119.278 77.1125 121.347 77.1125H130.31V85.2923H109.195V77.1125H119.192V77.1977Z" fill="#1C1C1C"/>
<path d="M124.277 65.2686V44.3076H130.396V66.4615H117.986L115.4 46.3526V66.0354H109.281V45.0745H121.519L124.277 65.2686Z" fill="#1C1C1C"/>
<path d="M107.559 33.8272C107.559 36.2983 105.576 38.258 103.077 38.258C100.664 38.258 98.6816 36.2983 98.6816 33.8272C98.6816 31.3562 100.664 29.4817 103.077 29.4817C105.576 29.3965 107.559 31.3562 107.559 33.8272ZM130.311 37.9172H109.196V29.7373H130.311V37.9172Z" fill="#1C1C1C"/>
<path d="M107.386 16.1894L103.594 17.4675L99.9746 7.41302L103.681 6.13491L107.386 16.1894ZM130.742 11.6734C130.742 18.3195 126.347 23.432 119.797 23.432C113.247 23.432 108.852 18.3195 108.852 11.6734C108.765 5.02722 113.247 0 119.797 0C126.347 0 130.742 5.02722 130.742 11.6734ZM123.331 11.6734C123.331 9.88402 122.038 8.60592 119.797 8.60592C117.556 8.60592 116.263 9.96923 116.263 11.6734C116.263 13.4627 117.556 14.7408 119.797 14.7408C122.038 14.826 123.331 13.4627 123.331 11.6734Z" fill="#1C1C1C"/>
<path d="M90.6658 0.59644C90.3211 2.13017 89.8901 3.66389 89.5454 5.28283C85.8395 19.5976 82.2197 33.8272 78.5138 48.142C76.5316 55.8106 74.377 63.4793 72.3947 71.1479C71.6191 74.045 71.6191 74.045 68.6026 74.045C51.9691 74.045 35.2493 74.045 18.5296 74.045C17.323 74.045 16.8921 73.7041 16.5474 72.5112C12.4105 55.2994 8.1875 38.0024 4.05066 20.7905C2.67171 15.1669 1.46513 9.45798 0.258553 3.83431C0 2.81182 0.0861842 1.70413 0 0.426025C0.603289 0.426025 1.12039 0.426025 1.6375 0.426025C10.5145 0.426025 19.3053 0.426025 28.1822 0.426025C29.6474 0.426025 30.0783 0.937268 30.3368 2.21537C32.1467 10.8213 33.8704 19.5124 35.7664 28.1183C38.6105 41.4958 41.5408 54.7882 44.3849 68.1657C44.4711 68.5917 44.5572 68.9325 44.7296 69.3586C44.902 69.3586 44.9882 69.3586 45.1605 69.3586C45.4191 68.2509 45.6776 67.2284 45.9362 66.1207C47.3151 60.071 48.6941 54.0213 50.1592 47.9716C53.348 34.4237 56.623 20.9609 59.898 7.41301C60.4151 5.36804 60.8461 3.32307 61.4493 1.2781C61.5355 0.937268 62.0526 0.511233 62.3112 0.511233C71.7053 0.511233 81.0993 0.511233 90.4934 0.511233C90.4934 0.426025 90.4934 0.511232 90.6658 0.59644Z" fill="#1C1C1C"/>
</g>
<defs>
<clipPath id="clip0_858_13305">
<rect width="131" height="144" fill="white"/>
</clipPath>
</defs>
</svg>
